<?xml version="1.0" encoding="UTF-8"?>
<svg id="Capa_1" data-name="Capa 1" xmlns="http://www.w3.org/2000/svg" viewBox="0 0 1000 1000">
  <defs>
    <style>
      .cls-1 {
        stroke-width: 16px;
      }

      .cls-1, .cls-2 {
        fill: none;
        stroke: #000;
        stroke-miterlimit: 10;
      }

      .cls-2 {
        stroke-width: 13.7px;
      }

      .cls-3, .cls-4 {
        stroke-width: 0px;
      }

      .cls-4 {
        fill: #fff;
      }
    </style>
  </defs>
  <rect class="cls-4" x="129.28" y="173.43" width="741.45" height="737.36"/>
  <path class="cls-3" d="m614.28,420.07c-2.52-3.92-5.38-7.64-8.36-11.26-5.92-7.09-12.26-14.19-19.34-20.03-1.56-1.28-3.26-2.54-5.12-3.31-31.91-10.95-76.14,32.68-97.23,53.68-26.18,26.75-50.03,55.89-72.97,85.49-35.16,46.02-69.59,92.61-102.4,140.42-.29.55-.51,1.08-.63,1.44-.15.34.03.5-.27-.29-.16-.35-.58-.78-.83-.91-.31-.15-.34-.13-.32-.11,1.66.18,3.64-.42,5.49-.83,6.21-1.72,13-3.6,19.6-4.12,6.8-.56,13.61-.26,20.21.76,6.35,1.11,12.82,2.18,19.22,2.91,83.67,9.47,168.3,14.42,252.43,13.32,10.37-.49,20.97-.34,30.94-2.79.12-.04.31-.08.38-.12,0,0,.25-.11.25-.11,0,0,.26-.1.26-.1.05-.02-.04-.01-.05,0,.39-.29,1.51-1.12,2.09-1.64,16.17-13.51,42.15-46.77,25.45-67.25-29.13-29.39-59.36-59.11-81.71-94.65-7.3-11.61-13.8-24.01-18.42-37.4,0,0-.17-1.57-.17-1.57-.19-2.28-.92-5.06-2.01-6.89-1.47-2.75-4.03-2.36-6.78-1.61-5.8,1.75-11,5.62-16.05,9.3-2.79,2.09-10.89,8.1-13.8,10.31-41.63,31.41-87.1,65.73-128.06,98.06-7.39,5.88-14.85,12.04-21.69,18.53-16.01,14.03-33.02,26.89-49.89,39.79-12.29,9.3-24.65,18.49-37.15,27.5-.36.26-.86.18-1.12-.18-.24-.34-.18-.8.12-1.07,22.51-19.64,51.78-45.02,73.42-64.9,3.77-3.5,7.55-7.12,11.07-10.86,2.81-2.87,6.63-6.56,9.65-9.27,43.17-38.55,88.45-74.53,133.78-110.46,2.84-2.15,10.93-8.56,13.74-10.67,5.92-4.58,12.06-8.99,19.41-11.68,16.11-5.92,28.98,2.76,31.97,19.27.21,1.42.44,2.5.51,4,0,0-.47-2.42-.47-2.42,4.02,11.45,9.9,22.48,16.5,33.14,6.62,10.66,14.13,20.9,22,30.91,16.42,20.8,34.81,39.93,53.33,59.02,7.93,7.81,12.49,18.28,12.12,29.46-.75,23.76-19.65,47.7-37.55,61.98-1.51,1.17-3.18,2.41-4.94,3.21-1.23.51-2.79.96-4.08,1.25-4.37.88-8.91,1.23-13.13,1.43-39.44,1.07-78.36-2.85-117.49-5.78-58.32-5.24-116.71-9.14-174.88-16-6.26-.75-12.55-.77-18.67.05-6.37.82-12.05,2.79-18.28,4.8-2.78.76-5.63,1.76-8.87,1.37-3.92-.53-6.58-4.23-5.38-8.66.4-2.56,3.01-6.75,3.78-7.82,34.52-56.58,71.49-111.96,113.87-163.07,28.79-34.82,120.32-142.01,169.47-111.39,8.42,7.04,14.85,15.91,21.08,24.78,2.65,3.96,5.22,7.98,7.35,12.3.2.4.03.88-.36,1.07-.38.19-.83.05-1.04-.3h0Z"/>
  <path class="cls-3" d="m328.38,641.36c53.82-63.29,101.95-132.4,165.14-187.14,23.16-19.23,60.1-47,91.7-35.13,4.82,2.17,8.67,5.65,12.6,8.97,7.11,6.44,21.74,20.54,21.59,30.39-1.56-9.2-17.49-20.72-24.97-26.07-3.65-2.41-7.47-5.16-11.52-6.58-6.75-1.83-13.81-1.59-20.61.14-33.35,8.74-71.05,48.03-95.26,72.67-46.1,47.33-87.91,99.97-138.67,142.77h0Z"/>
  <path class="cls-1" d="m433.53,594.92c16.87,9.19,51.94,30.62,89.62,33.7,18.87,1.55,83.12,6.81,96.51-22.21,12.31-26.68-19.47-82.86-61.28-88.09-12.49-1.56-20.03,5.01-75.27,42.84-21.34,14.61-38.7,26.39-49.58,33.76Z"/>
  <path class="cls-1" d="m483.92,562.83c10.58,20.23,33.92,26.7,48.17,18.89,15.66-8.58,22.37-35.5,6.47-55.49"/>
  <path class="cls-1" d="m433.53,594.92l-27.46,13.47c4.4,20.61,15.76,30.1,37.56,35.63,79.54,20.18,147.64,21.92,176.8-3.3,6.18-5.35,9.79-21.55,1.91-48.43"/>
  <circle class="cls-2" cx="519.15" cy="556.8" r="6.58"/>
  <circle class="cls-4" cx="520.68" cy="558.29" r="4.82"/>
</svg>